# Blender 4.3.0
# www.blender.org
o LightBase
v -0.600000 -0.015877 0.600000
v -0.600000 0.104123 0.600000
v -0.600000 -0.015877 -0.600000
v -0.600000 0.104123 -0.600000
v 0.600000 -0.015877 0.600000
v 0.600000 0.104123 0.600000
v 0.600000 -0.015877 -0.600000
v 0.600000 0.104123 -0.600000
v 0.000000 0.096066 -0.540000
v -0.270000 0.096066 -0.467654
v -0.467654 0.096066 -0.270000
v -0.540000 0.096066 0.000000
v -0.467654 0.096066 0.270000
v -0.270000 0.096066 0.467654
v 0.000000 0.096066 0.540000
v 0.270000 0.096066 0.467654
v 0.467654 0.096066 0.270000
v 0.540000 0.096066 0.000000
v 0.467654 0.096066 -0.270000
v 0.270000 0.096066 -0.467654
v 0.000000 0.472737 -0.331819
v -0.165909 0.472737 -0.287363
v -0.287363 0.472737 -0.165909
v -0.331819 0.472737 0.000000
v -0.287363 0.472737 0.165909
v -0.165909 0.472737 0.287363
v 0.000000 0.472737 0.331819
v 0.165909 0.472737 0.287363
v 0.287363 0.472737 0.165909
v 0.331819 0.472737 0.000000
v 0.287363 0.472737 -0.165909
v 0.165909 0.472737 -0.287363
v 0.000000 1.000000 -0.331819
v -0.165909 1.000000 -0.287363
v -0.287363 1.000000 -0.165909
v -0.331819 1.000000 0.000000
v -0.287363 1.000000 0.165909
v -0.165909 1.000000 0.287363
v 0.000000 1.000000 0.331819
v 0.165909 1.000000 0.287363
v 0.287363 1.000000 0.165909
v 0.331819 1.000000 0.000000
v 0.287363 1.000000 -0.165909
v 0.165909 1.000000 -0.287363
vn -1.0000 -0.0000 -0.0000
vn -0.0000 -0.0000 -1.0000
vn 1.0000 -0.0000 -0.0000
vn -0.0000 -0.0000 1.0000
vn -0.0000 -1.0000 -0.0000
vn -0.0000 1.0000 -0.0000
vn -0.2283 0.4709 0.8521
vn -0.8521 0.4709 -0.2283
vn 0.8521 0.4709 -0.2283
vn 0.2283 0.4709 0.8521
vn -0.8521 0.4709 0.2283
vn 0.6238 0.4709 -0.6238
vn -0.2283 0.4709 -0.8521
vn 0.6238 0.4709 0.6238
vn -0.6238 0.4709 0.6238
vn 0.2283 0.4709 -0.8521
vn -0.6238 0.4709 -0.6238
vn 0.8521 0.4709 0.2283
vn 0.7071 -0.0000 -0.7071
vn -0.2588 -0.0000 -0.9659
vn 0.7071 -0.0000 0.7071
vn -0.7071 -0.0000 0.7071
vn 0.2588 -0.0000 -0.9659
vn -0.7071 -0.0000 -0.7071
vn 0.9659 -0.0000 0.2588
vn -0.2588 -0.0000 0.9659
vn -0.9659 -0.0000 -0.2588
vn 0.9659 -0.0000 -0.2588
vn 0.2588 -0.0000 0.9659
vn -0.9659 -0.0000 0.2588
vt 0.375000 0.000000
vt 0.625000 0.000000
vt 0.625000 0.250000
vt 0.375000 0.250000
vt 0.625000 0.500000
vt 0.375000 0.500000
vt 0.625000 0.750000
vt 0.375000 0.750000
vt 0.625000 1.000000
vt 0.375000 1.000000
vt 0.125000 0.500000
vt 0.125000 0.750000
vt 0.875000 0.500000
vt 0.875000 0.750000
vt 0.000000 0.000000
s 0
f 1/1/1 2/2/1 4/3/1 3/4/1
f 3/4/2 4/3/2 8/5/2 7/6/2
f 7/6/3 8/5/3 6/7/3 5/8/3
f 5/8/4 6/7/4 2/9/4 1/10/4
f 3/11/5 7/6/5 5/8/5 1/12/5
f 8/5/6 4/13/6 2/14/6 6/7/6
f 14/15/7 15/15/7 27/15/7 26/15/7
f 11/15/8 12/15/8 24/15/8 23/15/8
f 18/15/9 19/15/9 31/15/9 30/15/9
f 15/15/10 16/15/10 28/15/10 27/15/10
f 12/15/11 13/15/11 25/15/11 24/15/11
f 19/15/12 20/15/12 32/15/12 31/15/12
f 9/15/13 10/15/13 22/15/13 21/15/13
f 16/15/14 17/15/14 29/15/14 28/15/14
f 13/15/15 14/15/15 26/15/15 25/15/15
f 20/15/16 9/15/16 21/15/16 32/15/16
f 10/15/17 11/15/17 23/15/17 22/15/17
f 17/15/18 18/15/18 30/15/18 29/15/18
f 31/15/19 32/15/19 44/15/19 43/15/19
f 21/15/20 22/15/20 34/15/20 33/15/20
f 28/15/21 29/15/21 41/15/21 40/15/21
f 25/15/22 26/15/22 38/15/22 37/15/22
f 32/15/23 21/15/23 33/15/23 44/15/23
f 22/15/24 23/15/24 35/15/24 34/15/24
f 29/15/25 30/15/25 42/15/25 41/15/25
f 26/15/26 27/15/26 39/15/26 38/15/26
f 23/15/27 24/15/27 36/15/27 35/15/27
f 30/15/28 31/15/28 43/15/28 42/15/28
f 27/15/29 28/15/29 40/15/29 39/15/29
f 24/15/30 25/15/30 37/15/30 36/15/30
f 34/15/6 35/15/6 36/15/6 37/15/6 38/15/6 39/15/6 40/15/6 41/15/6 42/15/6 43/15/6 44/15/6 33/15/6
