# Blender 4.3.0
# www.blender.org
o Rotating_light
v 0.000000 1.000000 -0.368688
v -0.184344 1.000000 -0.319293
v -0.319293 1.000000 -0.184344
v -0.368688 1.000000 0.000000
v -0.319293 1.000000 0.184344
v -0.184344 1.000000 0.319293
v 0.000000 1.000000 0.368688
v 0.184344 1.000000 0.319293
v 0.319293 1.000000 0.184344
v 0.368688 1.000000 0.000000
v 0.319293 1.000000 -0.184344
v 0.184344 1.000000 -0.319293
v -0.184344 1.042433 -0.319293
v 0.000000 1.042433 -0.368688
v -0.319293 1.042433 -0.184344
v -0.368688 1.042433 0.000000
v -0.319293 1.042433 0.184344
v -0.184344 1.042433 0.319293
v 0.000000 1.042433 0.368688
v 0.184344 1.042433 0.319293
v 0.319293 1.042433 0.184344
v 0.368688 1.042433 0.000000
v 0.319293 1.042433 -0.184344
v 0.184344 1.042433 -0.319293
v -0.184344 1.488844 -0.319293
v 0.000000 1.488844 -0.368688
v -0.319293 1.488844 -0.184344
v -0.368688 1.488844 0.000000
v -0.319293 1.488844 0.184344
v -0.184344 1.488844 0.319293
v 0.000000 1.488844 0.368688
v 0.184344 1.488844 0.319293
v 0.319293 1.488844 0.184344
v 0.368688 1.488844 0.000000
v 0.319293 1.488844 -0.184344
v 0.184344 1.488844 -0.319293
v -0.184344 1.524809 -0.319293
v 0.000000 1.524809 -0.368688
v -0.319293 1.524809 -0.184344
v -0.368688 1.524809 0.000000
v -0.319293 1.524809 0.184344
v -0.184344 1.524809 0.319293
v 0.000000 1.524809 0.368688
v 0.184344 1.524809 0.319293
v 0.319293 1.524809 0.184344
v 0.368688 1.524809 0.000000
v 0.319293 1.524809 -0.184344
v 0.184344 1.524809 -0.319293
v -0.202778 1.000000 -0.351222
v 0.000000 1.000000 -0.405556
v -0.351222 1.000000 -0.202778
v -0.405556 1.000000 0.000000
v -0.351222 1.000000 0.202778
v -0.202778 1.000000 0.351222
v 0.000000 1.000000 0.405556
v 0.202778 1.000000 0.351222
v 0.351222 1.000000 0.202778
v 0.405556 1.000000 0.000000
v 0.351222 1.000000 -0.202778
v 0.202778 1.000000 -0.351222
v -0.202778 1.042433 -0.351222
v 0.000000 1.042433 -0.405556
v -0.351222 1.042433 -0.202778
v -0.405556 1.042433 0.000000
v -0.351222 1.042433 0.202778
v -0.202778 1.042433 0.351222
v 0.000000 1.042433 0.405556
v 0.202778 1.042433 0.351222
v 0.351222 1.042433 0.202778
v 0.405556 1.042433 0.000000
v 0.351222 1.042433 -0.202778
v 0.202778 1.042433 -0.351222
v -0.202778 1.488844 -0.351222
v 0.000000 1.488844 -0.405556
v -0.351222 1.488844 -0.202778
v -0.405556 1.488844 0.000000
v -0.351222 1.488844 0.202778
v -0.202778 1.488844 0.351222
v 0.000000 1.488844 0.405556
v 0.202778 1.488844 0.351222
v 0.351222 1.488844 0.202778
v 0.405556 1.488844 0.000000
v 0.351222 1.488844 -0.202778
v 0.202778 1.488844 -0.351222
v -0.202778 1.524809 -0.351222
v 0.000000 1.524809 -0.405556
v -0.351222 1.524809 -0.202778
v -0.405556 1.524809 0.000000
v -0.351222 1.524809 0.202778
v -0.202778 1.524809 0.351222
v 0.000000 1.524809 0.405556
v 0.202778 1.524809 0.351222
v 0.351222 1.524809 0.202778
v 0.405556 1.524809 0.000000
v 0.351222 1.524809 -0.202778
v 0.202778 1.524809 -0.351222
vn -0.0000 1.0000 -0.0000
vn -0.9659 -0.0000 0.2588
vn -0.0000 -1.0000 -0.0000
vn 0.7071 -0.0000 -0.7071
vn -0.2588 -0.0000 -0.9659
vn 0.7071 -0.0000 0.7071
vn -0.7071 -0.0000 0.7071
vn 0.2588 -0.0000 -0.9659
vn -0.7071 -0.0000 -0.7071
vn 0.9659 -0.0000 0.2588
vn -0.2588 -0.0000 0.9659
vn -0.9659 -0.0000 -0.2588
vn 0.9659 -0.0000 -0.2588
vn 0.2588 -0.0000 0.9659
vt 0.000000 0.000000
s 0
f 37/1/1 38/1/1 86/1/1 85/1/1
f 16/1/2 17/1/2 29/1/2 28/1/2
f 35/1/3 36/1/3 84/1/3 83/1/3
f 21/1/1 20/1/1 68/1/1 69/1/1
f 5/1/3 6/1/3 54/1/3 53/1/3
f 34/1/3 35/1/3 83/1/3 82/1/3
f 20/1/1 19/1/1 67/1/1 68/1/1
f 4/1/3 5/1/3 53/1/3 52/1/3
f 38/1/1 48/1/1 96/1/1 86/1/1
f 33/1/3 34/1/3 82/1/3 81/1/3
f 19/1/1 18/1/1 66/1/1 67/1/1
f 3/1/3 4/1/3 52/1/3 51/1/3
f 48/1/1 47/1/1 95/1/1 96/1/1
f 32/1/3 33/1/3 81/1/3 80/1/3
f 23/1/4 24/1/4 36/1/4 35/1/4
f 14/1/5 13/1/5 25/1/5 26/1/5
f 20/1/6 21/1/6 33/1/6 32/1/6
f 17/1/7 18/1/7 30/1/7 29/1/7
f 24/1/8 14/1/8 26/1/8 36/1/8
f 13/1/9 15/1/9 27/1/9 25/1/9
f 21/1/10 22/1/10 34/1/10 33/1/10
f 18/1/11 19/1/11 31/1/11 30/1/11
f 15/1/12 16/1/12 28/1/12 27/1/12
f 22/1/13 23/1/13 35/1/13 34/1/13
f 19/1/14 20/1/14 32/1/14 31/1/14
f 37/1/1 39/1/1 40/1/1 41/1/1 42/1/1 43/1/1 44/1/1 45/1/1 46/1/1 47/1/1 48/1/1 38/1/1
f 18/1/1 17/1/1 65/1/1 66/1/1
f 2/1/3 3/1/3 51/1/3 49/1/3
f 47/1/1 46/1/1 94/1/1 95/1/1
f 31/1/3 32/1/3 80/1/3 79/1/3
f 17/1/1 16/1/1 64/1/1 65/1/1
f 1/1/3 2/1/3 49/1/3 50/1/3
f 46/1/1 45/1/1 93/1/1 94/1/1
f 30/1/3 31/1/3 79/1/3 78/1/3
f 16/1/1 15/1/1 63/1/1 64/1/1
f 45/1/1 44/1/1 92/1/1 93/1/1
f 29/1/3 30/1/3 78/1/3 77/1/3
f 52/1/2 53/1/2 65/1/2 64/1/2
f 59/1/4 60/1/4 72/1/4 71/1/4
f 50/1/5 49/1/5 61/1/5 62/1/5
f 56/1/6 57/1/6 69/1/6 68/1/6
f 53/1/7 54/1/7 66/1/7 65/1/7
f 60/1/8 50/1/8 62/1/8 72/1/8
f 49/1/9 51/1/9 63/1/9 61/1/9
f 57/1/10 58/1/10 70/1/10 69/1/10
f 54/1/11 55/1/11 67/1/11 66/1/11
f 51/1/12 52/1/12 64/1/12 63/1/12
f 58/1/13 59/1/13 71/1/13 70/1/13
f 55/1/14 56/1/14 68/1/14 67/1/14
f 79/1/14 80/1/14 92/1/14 91/1/14
f 76/1/2 77/1/2 89/1/2 88/1/2
f 83/1/4 84/1/4 96/1/4 95/1/4
f 74/1/5 73/1/5 85/1/5 86/1/5
f 80/1/6 81/1/6 93/1/6 92/1/6
f 77/1/7 78/1/7 90/1/7 89/1/7
f 84/1/8 74/1/8 86/1/8 96/1/8
f 73/1/9 75/1/9 87/1/9 85/1/9
f 81/1/10 82/1/10 94/1/10 93/1/10
f 78/1/11 79/1/11 91/1/11 90/1/11
f 75/1/12 76/1/12 88/1/12 87/1/12
f 82/1/13 83/1/13 95/1/13 94/1/13
f 6/1/3 7/1/3 55/1/3 54/1/3
f 22/1/1 21/1/1 69/1/1 70/1/1
f 36/1/3 26/1/3 74/1/3 84/1/3
f 39/1/1 37/1/1 85/1/1 87/1/1
f 7/1/3 8/1/3 56/1/3 55/1/3
f 23/1/1 22/1/1 70/1/1 71/1/1
f 40/1/1 39/1/1 87/1/1 88/1/1
f 8/1/3 9/1/3 57/1/3 56/1/3
f 24/1/1 23/1/1 71/1/1 72/1/1
f 26/1/3 25/1/3 73/1/3 74/1/3
f 41/1/1 40/1/1 88/1/1 89/1/1
f 9/1/3 10/1/3 58/1/3 57/1/3
f 14/1/1 24/1/1 72/1/1 62/1/1
f 25/1/3 27/1/3 75/1/3 73/1/3
f 42/1/1 41/1/1 89/1/1 90/1/1
f 10/1/3 11/1/3 59/1/3 58/1/3
f 27/1/3 28/1/3 76/1/3 75/1/3
f 43/1/1 42/1/1 90/1/1 91/1/1
f 11/1/3 12/1/3 60/1/3 59/1/3
f 13/1/1 14/1/1 62/1/1 61/1/1
f 28/1/3 29/1/3 77/1/3 76/1/3
f 44/1/1 43/1/1 91/1/1 92/1/1
f 12/1/3 1/1/3 50/1/3 60/1/3
f 15/1/1 13/1/1 61/1/1 63/1/1
f 2/1/3 1/1/3 12/1/3 11/1/3 10/1/3 9/1/3 8/1/3 7/1/3 6/1/3 5/1/3 4/1/3 3/1/3
